<svg width="36" height="27" viewBox="0 0 36 27" fill="none" xmlns="http://www.w3.org/2000/svg">
<g clip-path="url(#clip0_2_275)">
<g clip-path="url(#clip1_2_275)">
<path d="M19.0975 3.02393H18.785V2.39893C18.785 1.88197 18.3645 1.46143 17.8475 1.46143C17.3306 1.46143 16.91 1.88197 16.91 2.39893V3.02393H4.41V2.39893C4.41 1.88197 3.98946 1.46143 3.4725 1.46143C2.95555 1.46143 2.535 1.88197 2.535 2.39893V3.02393H2.2225C1.36094 3.02393 0.660004 3.72486 0.660004 4.58643V18.3364C0.660004 19.198 1.36094 19.8989 2.2225 19.8989H19.0975C19.9591 19.8989 20.66 19.198 20.66 18.3364V4.58643C20.66 3.72486 19.9591 3.02393 19.0975 3.02393ZM17.535 2.39893C17.535 2.22662 17.6752 2.08643 17.8475 2.08643C18.0198 2.08643 18.16 2.22662 18.16 2.39893V3.33568C18.16 3.33596 18.16 3.33619 18.16 3.33643C18.16 3.33666 18.16 3.33693 18.16 3.33717V4.27393C18.16 4.44623 18.0198 4.58643 17.8475 4.58643C17.6752 4.58643 17.535 4.44623 17.535 4.27393V2.39893ZM3.4725 2.08643C3.64481 2.08643 3.785 2.22662 3.785 2.39893V4.27393C3.785 4.44623 3.64481 4.58643 3.4725 4.58643C3.3002 4.58643 3.16 4.44623 3.16 4.27393V2.39893C3.16 2.22662 3.3002 2.08643 3.4725 2.08643ZM19.0975 19.2739H2.2225C1.70555 19.2739 1.285 18.8534 1.285 18.3364V6.46143H16.285C16.4576 6.46143 16.5975 6.3215 16.5975 6.14893C16.5975 5.97635 16.4576 5.83643 16.285 5.83643H1.285V4.58643C1.285 4.06947 1.70555 3.64893 2.2225 3.64893H2.535V4.27393C2.535 4.79088 2.95555 5.21143 3.4725 5.21143C3.98946 5.21143 4.41 4.79088 4.41 4.27393V3.64893H16.91V4.27393C16.91 4.79088 17.3306 5.21143 17.8475 5.21143C18.3645 5.21143 18.785 4.79088 18.785 4.27393V3.64893H19.0975C19.6145 3.64893 20.035 4.06947 20.035 4.58643V5.83643H19.41C19.2374 5.83643 19.0975 5.97635 19.0975 6.14893C19.0975 6.3215 19.2374 6.46143 19.41 6.46143H20.035V18.3364C20.035 18.8534 19.6145 19.2739 19.0975 19.2739Z" fill="#555555"/>
<path d="M18.16 5.83643H17.535C17.3624 5.83643 17.2225 5.97635 17.2225 6.14893C17.2225 6.3215 17.3624 6.46143 17.535 6.46143H18.16C18.3326 6.46143 18.4725 6.3215 18.4725 6.14893C18.4725 5.97635 18.3326 5.83643 18.16 5.83643Z" fill="#555555"/>
<path d="M9.56625 9.35205H9.01938C8.84679 9.35205 8.70688 9.48322 8.70688 9.64502C8.70688 9.80682 8.84679 9.93799 9.01938 9.93799H9.56625C9.73884 9.93799 9.87875 9.80682 9.87875 9.64502C9.87875 9.48322 9.73884 9.35205 9.56625 9.35205Z" fill="#555555" stroke="black" stroke-width="0.0390625"/>
<path d="M12.3397 9.35205H11.7928C11.6202 9.35205 11.4803 9.48322 11.4803 9.64502C11.4803 9.80682 11.6202 9.93799 11.7928 9.93799H12.3397C12.5123 9.93799 12.6522 9.80682 12.6522 9.64502C12.6522 9.48322 12.5123 9.35205 12.3397 9.35205Z" fill="#555555" stroke="black" stroke-width="0.0390625"/>
<path d="M15.035 9.35205H14.4881C14.3155 9.35205 14.1756 9.48322 14.1756 9.64502C14.1756 9.80682 14.3155 9.93799 14.4881 9.93799H15.035C15.2076 9.93799 15.3475 9.80682 15.3475 9.64502C15.3475 9.48322 15.2076 9.35205 15.035 9.35205Z" fill="#555555" stroke="black" stroke-width="0.0390625"/>
<path d="M17.7694 9.35205H17.2225C17.0499 9.35205 16.91 9.48322 16.91 9.64502C16.91 9.80682 17.0499 9.93799 17.2225 9.93799H17.7694C17.942 9.93799 18.0819 9.80682 18.0819 9.64502C18.0819 9.48322 17.942 9.35205 17.7694 9.35205Z" fill="#555555" stroke="black" stroke-width="0.0390625"/>
<path d="M4.0975 12.4771H3.55063C3.37804 12.4771 3.23813 12.6082 3.23813 12.77C3.23813 12.9318 3.37804 13.063 3.55063 13.063H4.0975C4.27009 13.063 4.41 12.9318 4.41 12.77C4.41 12.6082 4.27009 12.4771 4.0975 12.4771Z" fill="#555555" stroke="black" stroke-width="0.0390625"/>
<path d="M6.83188 12.4771H6.285C6.11241 12.4771 5.9725 12.6082 5.9725 12.77C5.9725 12.9318 6.11241 13.063 6.285 13.063H6.83188C7.00447 13.063 7.14438 12.9318 7.14438 12.77C7.14438 12.6082 7.00447 12.4771 6.83188 12.4771Z" fill="#555555" stroke="black" stroke-width="0.0390625"/>
<path d="M9.56625 12.4771H9.01938C8.84679 12.4771 8.70688 12.6082 8.70688 12.77C8.70688 12.9318 8.84679 13.063 9.01938 13.063H9.56625C9.73884 13.063 9.87875 12.9318 9.87875 12.77C9.87875 12.6082 9.73884 12.4771 9.56625 12.4771Z" fill="#555555" stroke="black" stroke-width="0.0390625"/>
<path d="M12.3006 12.4771H11.7538C11.5812 12.4771 11.4413 12.6082 11.4413 12.77C11.4413 12.9318 11.5812 13.063 11.7538 13.063H12.3006C12.4732 13.063 12.6131 12.9318 12.6131 12.77C12.6131 12.6082 12.4732 12.4771 12.3006 12.4771Z" fill="#555555" stroke="black" stroke-width="0.0390625"/>
<path d="M15.035 12.4771H14.4881C14.3155 12.4771 14.1756 12.6082 14.1756 12.77C14.1756 12.9318 14.3155 13.063 14.4881 13.063H15.035C15.2076 13.063 15.3475 12.9318 15.3475 12.77C15.3475 12.6082 15.2076 12.4771 15.035 12.4771Z" fill="#555555" stroke="black" stroke-width="0.0390625"/>
<path d="M17.7694 12.4771H17.2225C17.0499 12.4771 16.91 12.6082 16.91 12.77C16.91 12.9318 17.0499 13.063 17.2225 13.063H17.7694C17.942 13.063 18.0819 12.9318 18.0819 12.77C18.0819 12.6082 17.942 12.4771 17.7694 12.4771Z" fill="#555555" stroke="black" stroke-width="0.0390625"/>
<path d="M4.0975 15.9927H3.55063C3.37804 15.9927 3.23813 16.1238 3.23813 16.2856C3.23813 16.4474 3.37804 16.5786 3.55063 16.5786H4.0975C4.27009 16.5786 4.41 16.4474 4.41 16.2856C4.41 16.1238 4.27009 15.9927 4.0975 15.9927Z" fill="#555555" stroke="black" stroke-width="0.0390625"/>
<path d="M6.83188 15.9927H6.285C6.11241 15.9927 5.9725 16.1238 5.9725 16.2856C5.9725 16.4474 6.11241 16.5786 6.285 16.5786H6.83188C7.00447 16.5786 7.14438 16.4474 7.14438 16.2856C7.14438 16.1238 7.00447 15.9927 6.83188 15.9927Z" fill="#555555" stroke="black" stroke-width="0.0390625"/>
<path d="M9.56625 15.9927H9.01938C8.84679 15.9927 8.70688 16.1238 8.70688 16.2856C8.70688 16.4474 8.84679 16.5786 9.01938 16.5786H9.56625C9.73884 16.5786 9.87875 16.4474 9.87875 16.2856C9.87875 16.1238 9.73884 15.9927 9.56625 15.9927Z" fill="#555555" stroke="black" stroke-width="0.0390625"/>
<path d="M12.3006 15.9927H11.7538C11.5812 15.9927 11.4413 16.1238 11.4413 16.2856C11.4413 16.4474 11.5812 16.5786 11.7538 16.5786H12.3006C12.4732 16.5786 12.6131 16.4474 12.6131 16.2856C12.6131 16.1238 12.4732 15.9927 12.3006 15.9927Z" fill="#555555" stroke="black" stroke-width="0.0390625"/>
<path d="M15.035 15.9927H14.4881C14.3155 15.9927 14.1756 16.1238 14.1756 16.2856C14.1756 16.4474 14.3155 16.5786 14.4881 16.5786H15.035C15.2076 16.5786 15.3475 16.4474 15.3475 16.2856C15.3475 16.1238 15.2076 15.9927 15.035 15.9927Z" fill="#555555" stroke="black" stroke-width="0.0390625"/>
</g>
</g>
<defs>
<clipPath id="clip0_2_275">
<rect width="20" height="20" fill="white" transform="translate(0.660004 0.680176)"/>
</clipPath>
<clipPath id="clip1_2_275">
<rect width="20" height="20" fill="white" transform="translate(0.660004 0.680176)"/>
</clipPath>
</defs>
</svg>
