<svg width="36" height="27" viewBox="0 0 36 27" fill="none" xmlns="http://www.w3.org/2000/svg">
<g clip-path="url(#clip0_2_300)">
<g clip-path="url(#clip1_2_300)">
<path d="M10.83 0.680176C5.31602 0.680176 0.830017 5.16618 0.830017 10.6802C0.830017 16.1942 5.31602 20.6802 10.83 20.6802C16.344 20.6802 20.83 16.1942 20.83 10.6802C20.83 5.16618 16.344 0.680176 10.83 0.680176ZM10.83 20.0135C5.68368 20.0135 1.49668 15.8265 1.49668 10.6802C1.49668 5.53384 5.68368 1.34684 10.83 1.34684C15.9764 1.34684 20.1634 5.53384 20.1634 10.6802C20.1634 15.8265 15.9764 20.0135 10.83 20.0135Z" fill="#555555"/>
<path d="M11.1633 9.35381V5.97314C11.1633 5.78881 11.014 5.63981 10.83 5.63981C10.646 5.63981 10.4967 5.78881 10.4967 5.97314V9.35381C10.0303 9.47514 9.66535 9.84014 9.54401 10.3065H7.16335C6.97935 10.3065 6.83001 10.4555 6.83001 10.6398C6.83001 10.8241 6.97935 10.9731 7.16335 10.9731H9.54401C9.69301 11.5465 10.2107 11.9731 10.83 11.9731C11.5653 11.9731 12.1633 11.3751 12.1633 10.6398C12.1633 10.0201 11.7367 9.50281 11.1633 9.35381ZM10.83 11.3065C10.4623 11.3065 10.1633 11.0075 10.1633 10.6398C10.1633 10.2721 10.4623 9.97314 10.83 9.97314C11.1977 9.97314 11.4967 10.2721 11.4967 10.6398C11.4967 11.0075 11.1977 11.3065 10.83 11.3065ZM10.83 3.97314C11.014 3.97314 11.1633 3.82414 11.1633 3.63981V3.30648C11.1633 3.12214 11.014 2.97314 10.83 2.97314C10.646 2.97314 10.4967 3.12214 10.4967 3.30648V3.63981C10.4967 3.82414 10.646 3.97314 10.83 3.97314ZM10.83 17.3065C10.646 17.3065 10.4967 17.4555 10.4967 17.6398V17.9731C10.4967 18.1575 10.646 18.3065 10.83 18.3065C11.014 18.3065 11.1633 18.1575 11.1633 17.9731V17.6398C11.1633 17.4555 11.014 17.3065 10.83 17.3065ZM18.1633 10.3065H17.83C17.646 10.3065 17.4967 10.4555 17.4967 10.6398C17.4967 10.8241 17.646 10.9731 17.83 10.9731H18.1633C18.3473 10.9731 18.4967 10.8241 18.4967 10.6398C18.4967 10.4555 18.3473 10.3065 18.1633 10.3065ZM3.83001 10.3065H3.49668C3.31268 10.3065 3.16335 10.4555 3.16335 10.6398C3.16335 10.8241 3.31268 10.9731 3.49668 10.9731H3.83001C4.01401 10.9731 4.16335 10.8241 4.16335 10.6398C4.16335 10.4555 4.01401 10.3065 3.83001 10.3065ZM15.7797 5.21848L15.544 5.45414C15.4137 5.58448 15.4137 5.79514 15.544 5.92548C15.609 5.99048 15.6943 6.02314 15.7797 6.02314C15.865 6.02314 15.9503 5.99048 16.0153 5.92548L16.251 5.68981C16.3813 5.55948 16.3813 5.34881 16.251 5.21848C16.1207 5.08814 15.91 5.08848 15.7797 5.21848ZM5.64468 15.3538L5.40901 15.5895C5.27868 15.7198 5.27868 15.9305 5.40901 16.0608C5.47401 16.1258 5.55935 16.1585 5.64468 16.1585C5.73001 16.1585 5.81535 16.1258 5.88035 16.0608L6.11601 15.8251C6.24635 15.6948 6.24635 15.4841 6.11601 15.3538C5.98568 15.2235 5.77468 15.2238 5.64468 15.3538ZM16.0153 15.3538C15.885 15.2235 15.6743 15.2235 15.544 15.3538C15.4137 15.4841 15.4137 15.6948 15.544 15.8251L15.7797 16.0608C15.8447 16.1258 15.93 16.1585 16.0153 16.1585C16.1007 16.1585 16.186 16.1258 16.251 16.0608C16.3813 15.9305 16.3813 15.7198 16.251 15.5895L16.0153 15.3538ZM5.88035 5.21848C5.75001 5.08814 5.53935 5.08814 5.40901 5.21848C5.27868 5.34881 5.27868 5.55948 5.40901 5.68981L5.64468 5.92548C5.70968 5.99048 5.79501 6.02314 5.88035 6.02314C5.96568 6.02314 6.05101 5.99048 6.11601 5.92548C6.24635 5.79514 6.24635 5.58448 6.11601 5.45414L5.88035 5.21848Z" fill="#555555"/>
</g>
</g>
<defs>
<clipPath id="clip0_2_300">
<rect width="20" height="20" fill="white" transform="translate(0.830017 0.680176)"/>
</clipPath>
<clipPath id="clip1_2_300">
<rect width="20" height="20" fill="white" transform="translate(0.830017 0.680176)"/>
</clipPath>
</defs>
</svg>
