<svg width="36" height="27" viewBox="0 0 36 27" fill="none" xmlns="http://www.w3.org/2000/svg">
<g clip-path="url(#clip0_2_430)">
<g clip-path="url(#clip1_2_430)">
<path d="M10.83 0.0900879C5.31602 0.0900879 0.830017 4.57609 0.830017 10.0901C0.830017 15.6041 5.31602 20.0901 10.83 20.0901C16.344 20.0901 20.83 15.6041 20.83 10.0901C20.83 4.57609 16.344 0.0900879 10.83 0.0900879ZM10.83 19.4234C5.68368 19.4234 1.49668 15.2364 1.49668 10.0901C1.49668 4.94375 5.68368 0.756755 10.83 0.756755C15.9764 0.756755 20.1634 4.94375 20.1634 10.0901C20.1634 15.2364 15.9764 19.4234 10.83 19.4234Z" fill="#555555"/>
<path d="M11.1633 8.76372V5.38306C11.1633 5.19872 11.014 5.04972 10.83 5.04972C10.646 5.04972 10.4967 5.19872 10.4967 5.38306V8.76372C10.0303 8.88506 9.66535 9.25006 9.54401 9.71639H7.16335C6.97935 9.71639 6.83001 9.86539 6.83001 10.0497C6.83001 10.2341 6.97935 10.3831 7.16335 10.3831H9.54401C9.69301 10.9564 10.2107 11.3831 10.83 11.3831C11.5653 11.3831 12.1633 10.7851 12.1633 10.0497C12.1633 9.43006 11.7367 8.91272 11.1633 8.76372ZM10.83 10.7164C10.4623 10.7164 10.1633 10.4174 10.1633 10.0497C10.1633 9.68206 10.4623 9.38306 10.83 9.38306C11.1977 9.38306 11.4967 9.68206 11.4967 10.0497C11.4967 10.4174 11.1977 10.7164 10.83 10.7164ZM10.83 3.38306C11.014 3.38306 11.1633 3.23406 11.1633 3.04972V2.71639C11.1633 2.53206 11.014 2.38306 10.83 2.38306C10.646 2.38306 10.4967 2.53206 10.4967 2.71639V3.04972C10.4967 3.23406 10.646 3.38306 10.83 3.38306ZM10.83 16.7164C10.646 16.7164 10.4967 16.8654 10.4967 17.0497V17.3831C10.4967 17.5674 10.646 17.7164 10.83 17.7164C11.014 17.7164 11.1633 17.5674 11.1633 17.3831V17.0497C11.1633 16.8654 11.014 16.7164 10.83 16.7164ZM18.1633 9.71639H17.83C17.646 9.71639 17.4967 9.86539 17.4967 10.0497C17.4967 10.2341 17.646 10.3831 17.83 10.3831H18.1633C18.3473 10.3831 18.4967 10.2341 18.4967 10.0497C18.4967 9.86539 18.3473 9.71639 18.1633 9.71639ZM3.83001 9.71639H3.49668C3.31268 9.71639 3.16335 9.86539 3.16335 10.0497C3.16335 10.2341 3.31268 10.3831 3.49668 10.3831H3.83001C4.01401 10.3831 4.16335 10.2341 4.16335 10.0497C4.16335 9.86539 4.01401 9.71639 3.83001 9.71639ZM15.7797 4.62839L15.544 4.86406C15.4137 4.99439 15.4137 5.20506 15.544 5.33539C15.609 5.40039 15.6943 5.43306 15.7797 5.43306C15.865 5.43306 15.9503 5.40039 16.0153 5.33539L16.251 5.09972C16.3813 4.96939 16.3813 4.75872 16.251 4.62839C16.1207 4.49806 15.91 4.49839 15.7797 4.62839ZM5.64468 14.7637L5.40901 14.9994C5.27868 15.1297 5.27868 15.3404 5.40901 15.4707C5.47401 15.5357 5.55935 15.5684 5.64468 15.5684C5.73001 15.5684 5.81535 15.5357 5.88035 15.4707L6.11601 15.2351C6.24635 15.1047 6.24635 14.8941 6.11601 14.7637C5.98568 14.6334 5.77468 14.6337 5.64468 14.7637ZM16.0153 14.7637C15.885 14.6334 15.6743 14.6334 15.544 14.7637C15.4137 14.8941 15.4137 15.1047 15.544 15.2351L15.7797 15.4707C15.8447 15.5357 15.93 15.5684 16.0153 15.5684C16.1007 15.5684 16.186 15.5357 16.251 15.4707C16.3813 15.3404 16.3813 15.1297 16.251 14.9994L16.0153 14.7637ZM5.88035 4.62839C5.75001 4.49806 5.53935 4.49806 5.40901 4.62839C5.27868 4.75872 5.27868 4.96939 5.40901 5.09972L5.64468 5.33539C5.70968 5.40039 5.79501 5.43306 5.88035 5.43306C5.96568 5.43306 6.05101 5.40039 6.11601 5.33539C6.24635 5.20506 6.24635 4.99439 6.11601 4.86406L5.88035 4.62839Z" fill="#555555"/>
</g>
</g>
<defs>
<clipPath id="clip0_2_430">
<rect width="20" height="20" fill="white" transform="translate(0.830017 0.0900879)"/>
</clipPath>
<clipPath id="clip1_2_430">
<rect width="20" height="20" fill="white" transform="translate(0.830017 0.0900879)"/>
</clipPath>
</defs>
</svg>
