<svg width="36" height="27" viewBox="0 0 36 27" fill="none" xmlns="http://www.w3.org/2000/svg">
<g clip-path="url(#clip0_2_339)">
<g clip-path="url(#clip1_2_339)">
<path d="M19.0975 3.21387H18.785V2.58887C18.785 2.07191 18.3645 1.65137 17.8475 1.65137C17.3306 1.65137 16.91 2.07191 16.91 2.58887V3.21387H4.41V2.58887C4.41 2.07191 3.98946 1.65137 3.4725 1.65137C2.95555 1.65137 2.535 2.07191 2.535 2.58887V3.21387H2.2225C1.36094 3.21387 0.660004 3.9148 0.660004 4.77637V18.5264C0.660004 19.3879 1.36094 20.0889 2.2225 20.0889H19.0975C19.9591 20.0889 20.66 19.3879 20.66 18.5264V4.77637C20.66 3.9148 19.9591 3.21387 19.0975 3.21387ZM17.535 2.58887C17.535 2.41656 17.6752 2.27637 17.8475 2.27637C18.0198 2.27637 18.16 2.41656 18.16 2.58887V3.52563C18.16 3.5259 18.16 3.52613 18.16 3.52637C18.16 3.5266 18.16 3.52687 18.16 3.52711V4.46387C18.16 4.63617 18.0198 4.77637 17.8475 4.77637C17.6752 4.77637 17.535 4.63617 17.535 4.46387V2.58887ZM3.4725 2.27637C3.64481 2.27637 3.785 2.41656 3.785 2.58887V4.46387C3.785 4.63617 3.64481 4.77637 3.4725 4.77637C3.3002 4.77637 3.16 4.63617 3.16 4.46387V2.58887C3.16 2.41656 3.3002 2.27637 3.4725 2.27637ZM19.0975 19.4639H2.2225C1.70555 19.4639 1.285 19.0433 1.285 18.5264V6.65137H16.285C16.4576 6.65137 16.5975 6.51145 16.5975 6.33887C16.5975 6.16629 16.4576 6.02637 16.285 6.02637H1.285V4.77637C1.285 4.25941 1.70555 3.83887 2.2225 3.83887H2.535V4.46387C2.535 4.98082 2.95555 5.40137 3.4725 5.40137C3.98946 5.40137 4.41 4.98082 4.41 4.46387V3.83887H16.91V4.46387C16.91 4.98082 17.3306 5.40137 17.8475 5.40137C18.3645 5.40137 18.785 4.98082 18.785 4.46387V3.83887H19.0975C19.6145 3.83887 20.035 4.25941 20.035 4.77637V6.02637H19.41C19.2374 6.02637 19.0975 6.16629 19.0975 6.33887C19.0975 6.51145 19.2374 6.65137 19.41 6.65137H20.035V18.5264C20.035 19.0433 19.6145 19.4639 19.0975 19.4639Z" fill="#555555"/>
<path d="M18.16 6.02637H17.535C17.3624 6.02637 17.2225 6.16629 17.2225 6.33887C17.2225 6.51145 17.3624 6.65137 17.535 6.65137H18.16C18.3326 6.65137 18.4725 6.51145 18.4725 6.33887C18.4725 6.16629 18.3326 6.02637 18.16 6.02637Z" fill="#555555"/>
<path d="M9.56625 9.54199H9.01938C8.84679 9.54199 8.70688 9.67316 8.70688 9.83496C8.70688 9.99676 8.84679 10.1279 9.01938 10.1279H9.56625C9.73884 10.1279 9.87875 9.99676 9.87875 9.83496C9.87875 9.67316 9.73884 9.54199 9.56625 9.54199Z" fill="#555555" stroke="black" stroke-width="0.0390625"/>
<path d="M12.3397 9.54199H11.7928C11.6202 9.54199 11.4803 9.67316 11.4803 9.83496C11.4803 9.99676 11.6202 10.1279 11.7928 10.1279H12.3397C12.5123 10.1279 12.6522 9.99676 12.6522 9.83496C12.6522 9.67316 12.5123 9.54199 12.3397 9.54199Z" fill="#555555" stroke="black" stroke-width="0.0390625"/>
<path d="M15.035 9.54199H14.4881C14.3155 9.54199 14.1756 9.67316 14.1756 9.83496C14.1756 9.99676 14.3155 10.1279 14.4881 10.1279H15.035C15.2076 10.1279 15.3475 9.99676 15.3475 9.83496C15.3475 9.67316 15.2076 9.54199 15.035 9.54199Z" fill="#555555" stroke="black" stroke-width="0.0390625"/>
<path d="M17.7694 9.54199H17.2225C17.0499 9.54199 16.91 9.67316 16.91 9.83496C16.91 9.99676 17.0499 10.1279 17.2225 10.1279H17.7694C17.942 10.1279 18.0819 9.99676 18.0819 9.83496C18.0819 9.67316 17.942 9.54199 17.7694 9.54199Z" fill="#555555" stroke="black" stroke-width="0.0390625"/>
<path d="M4.0975 12.667H3.55063C3.37804 12.667 3.23813 12.7982 3.23813 12.96C3.23813 13.1218 3.37804 13.2529 3.55063 13.2529H4.0975C4.27009 13.2529 4.41 13.1218 4.41 12.96C4.41 12.7982 4.27009 12.667 4.0975 12.667Z" fill="#555555" stroke="black" stroke-width="0.0390625"/>
<path d="M6.83188 12.667H6.285C6.11241 12.667 5.9725 12.7982 5.9725 12.96C5.9725 13.1218 6.11241 13.2529 6.285 13.2529H6.83188C7.00447 13.2529 7.14438 13.1218 7.14438 12.96C7.14438 12.7982 7.00447 12.667 6.83188 12.667Z" fill="#555555" stroke="black" stroke-width="0.0390625"/>
<path d="M9.56625 12.667H9.01938C8.84679 12.667 8.70688 12.7982 8.70688 12.96C8.70688 13.1218 8.84679 13.2529 9.01938 13.2529H9.56625C9.73884 13.2529 9.87875 13.1218 9.87875 12.96C9.87875 12.7982 9.73884 12.667 9.56625 12.667Z" fill="#555555" stroke="black" stroke-width="0.0390625"/>
<path d="M12.3006 12.667H11.7538C11.5812 12.667 11.4413 12.7982 11.4413 12.96C11.4413 13.1218 11.5812 13.2529 11.7538 13.2529H12.3006C12.4732 13.2529 12.6131 13.1218 12.6131 12.96C12.6131 12.7982 12.4732 12.667 12.3006 12.667Z" fill="#555555" stroke="black" stroke-width="0.0390625"/>
<path d="M15.035 12.667H14.4881C14.3155 12.667 14.1756 12.7982 14.1756 12.96C14.1756 13.1218 14.3155 13.2529 14.4881 13.2529H15.035C15.2076 13.2529 15.3475 13.1218 15.3475 12.96C15.3475 12.7982 15.2076 12.667 15.035 12.667Z" fill="#555555" stroke="black" stroke-width="0.0390625"/>
<path d="M17.7694 12.667H17.2225C17.0499 12.667 16.91 12.7982 16.91 12.96C16.91 13.1218 17.0499 13.2529 17.2225 13.2529H17.7694C17.942 13.2529 18.0819 13.1218 18.0819 12.96C18.0819 12.7982 17.942 12.667 17.7694 12.667Z" fill="#555555" stroke="black" stroke-width="0.0390625"/>
<path d="M4.0975 16.1826H3.55063C3.37804 16.1826 3.23813 16.3138 3.23813 16.4756C3.23813 16.6374 3.37804 16.7686 3.55063 16.7686H4.0975C4.27009 16.7686 4.41 16.6374 4.41 16.4756C4.41 16.3138 4.27009 16.1826 4.0975 16.1826Z" fill="#555555" stroke="black" stroke-width="0.0390625"/>
<path d="M6.83188 16.1826H6.285C6.11241 16.1826 5.9725 16.3138 5.9725 16.4756C5.9725 16.6374 6.11241 16.7686 6.285 16.7686H6.83188C7.00447 16.7686 7.14438 16.6374 7.14438 16.4756C7.14438 16.3138 7.00447 16.1826 6.83188 16.1826Z" fill="#555555" stroke="black" stroke-width="0.0390625"/>
<path d="M9.56625 16.1826H9.01938C8.84679 16.1826 8.70688 16.3138 8.70688 16.4756C8.70688 16.6374 8.84679 16.7686 9.01938 16.7686H9.56625C9.73884 16.7686 9.87875 16.6374 9.87875 16.4756C9.87875 16.3138 9.73884 16.1826 9.56625 16.1826Z" fill="#555555" stroke="black" stroke-width="0.0390625"/>
<path d="M12.3006 16.1826H11.7538C11.5812 16.1826 11.4413 16.3138 11.4413 16.4756C11.4413 16.6374 11.5812 16.7686 11.7538 16.7686H12.3006C12.4732 16.7686 12.6131 16.6374 12.6131 16.4756C12.6131 16.3138 12.4732 16.1826 12.3006 16.1826Z" fill="#555555" stroke="black" stroke-width="0.0390625"/>
<path d="M15.035 16.1826H14.4881C14.3155 16.1826 14.1756 16.3138 14.1756 16.4756C14.1756 16.6374 14.3155 16.7686 14.4881 16.7686H15.035C15.2076 16.7686 15.3475 16.6374 15.3475 16.4756C15.3475 16.3138 15.2076 16.1826 15.035 16.1826Z" fill="#555555" stroke="black" stroke-width="0.0390625"/>
</g>
</g>
<defs>
<clipPath id="clip0_2_339">
<rect width="20" height="20" fill="white" transform="translate(0.660004 0.870117)"/>
</clipPath>
<clipPath id="clip1_2_339">
<rect width="20" height="20" fill="white" transform="translate(0.660004 0.870117)"/>
</clipPath>
</defs>
</svg>
