<svg width="36" height="27" viewBox="0 0 36 27" fill="none" xmlns="http://www.w3.org/2000/svg">
<g clip-path="url(#clip0_2_405)">
<g clip-path="url(#clip1_2_405)">
<path d="M19.0975 2.43384H18.785V1.80884C18.785 1.29188 18.3645 0.871338 17.8475 0.871338C17.3306 0.871338 16.91 1.29188 16.91 1.80884V2.43384H4.41V1.80884C4.41 1.29188 3.98946 0.871338 3.4725 0.871338C2.95555 0.871338 2.535 1.29188 2.535 1.80884V2.43384H2.2225C1.36094 2.43384 0.660004 3.13478 0.660004 3.99634V17.7463C0.660004 18.6079 1.36094 19.3088 2.2225 19.3088H19.0975C19.9591 19.3088 20.66 18.6079 20.66 17.7463V3.99634C20.66 3.13478 19.9591 2.43384 19.0975 2.43384ZM17.535 1.80884C17.535 1.63653 17.6752 1.49634 17.8475 1.49634C18.0198 1.49634 18.16 1.63653 18.16 1.80884V2.7456C18.16 2.74587 18.16 2.7461 18.16 2.74634C18.16 2.74657 18.16 2.74685 18.16 2.74708V3.68384C18.16 3.85614 18.0198 3.99634 17.8475 3.99634C17.6752 3.99634 17.535 3.85614 17.535 3.68384V1.80884ZM3.4725 1.49634C3.64481 1.49634 3.785 1.63653 3.785 1.80884V3.68384C3.785 3.85614 3.64481 3.99634 3.4725 3.99634C3.3002 3.99634 3.16 3.85614 3.16 3.68384V1.80884C3.16 1.63653 3.3002 1.49634 3.4725 1.49634ZM19.0975 18.6838H2.2225C1.70555 18.6838 1.285 18.2633 1.285 17.7463V5.87134H16.285C16.4576 5.87134 16.5975 5.73142 16.5975 5.55884C16.5975 5.38626 16.4576 5.24634 16.285 5.24634H1.285V3.99634C1.285 3.47938 1.70555 3.05884 2.2225 3.05884H2.535V3.68384C2.535 4.20079 2.95555 4.62134 3.4725 4.62134C3.98946 4.62134 4.41 4.20079 4.41 3.68384V3.05884H16.91V3.68384C16.91 4.20079 17.3306 4.62134 17.8475 4.62134C18.3645 4.62134 18.785 4.20079 18.785 3.68384V3.05884H19.0975C19.6145 3.05884 20.035 3.47938 20.035 3.99634V5.24634H19.41C19.2374 5.24634 19.0975 5.38626 19.0975 5.55884C19.0975 5.73142 19.2374 5.87134 19.41 5.87134H20.035V17.7463C20.035 18.2633 19.6145 18.6838 19.0975 18.6838Z" fill="#555555"/>
<path d="M18.16 5.24634H17.535C17.3624 5.24634 17.2225 5.38626 17.2225 5.55884C17.2225 5.73142 17.3624 5.87134 17.535 5.87134H18.16C18.3326 5.87134 18.4725 5.73142 18.4725 5.55884C18.4725 5.38626 18.3326 5.24634 18.16 5.24634Z" fill="#555555"/>
<path d="M9.56625 8.76196H9.01938C8.84679 8.76196 8.70688 8.89313 8.70688 9.05493C8.70688 9.21673 8.84679 9.3479 9.01938 9.3479H9.56625C9.73884 9.3479 9.87875 9.21673 9.87875 9.05493C9.87875 8.89313 9.73884 8.76196 9.56625 8.76196Z" fill="#555555" stroke="black" stroke-width="0.0390625"/>
<path d="M12.3397 8.76196H11.7928C11.6202 8.76196 11.4803 8.89313 11.4803 9.05493C11.4803 9.21673 11.6202 9.3479 11.7928 9.3479H12.3397C12.5123 9.3479 12.6522 9.21673 12.6522 9.05493C12.6522 8.89313 12.5123 8.76196 12.3397 8.76196Z" fill="#555555" stroke="black" stroke-width="0.0390625"/>
<path d="M15.035 8.76196H14.4881C14.3155 8.76196 14.1756 8.89313 14.1756 9.05493C14.1756 9.21673 14.3155 9.3479 14.4881 9.3479H15.035C15.2076 9.3479 15.3475 9.21673 15.3475 9.05493C15.3475 8.89313 15.2076 8.76196 15.035 8.76196Z" fill="#555555" stroke="black" stroke-width="0.0390625"/>
<path d="M17.7694 8.76196H17.2225C17.0499 8.76196 16.91 8.89313 16.91 9.05493C16.91 9.21673 17.0499 9.3479 17.2225 9.3479H17.7694C17.942 9.3479 18.0819 9.21673 18.0819 9.05493C18.0819 8.89313 17.942 8.76196 17.7694 8.76196Z" fill="#555555" stroke="black" stroke-width="0.0390625"/>
<path d="M4.0975 11.887H3.55063C3.37804 11.887 3.23813 12.0181 3.23813 12.1799C3.23813 12.3417 3.37804 12.4729 3.55063 12.4729H4.0975C4.27009 12.4729 4.41 12.3417 4.41 12.1799C4.41 12.0181 4.27009 11.887 4.0975 11.887Z" fill="#555555" stroke="black" stroke-width="0.0390625"/>
<path d="M6.83188 11.887H6.285C6.11241 11.887 5.9725 12.0181 5.9725 12.1799C5.9725 12.3417 6.11241 12.4729 6.285 12.4729H6.83188C7.00447 12.4729 7.14438 12.3417 7.14438 12.1799C7.14438 12.0181 7.00447 11.887 6.83188 11.887Z" fill="#555555" stroke="black" stroke-width="0.0390625"/>
<path d="M9.56625 11.887H9.01938C8.84679 11.887 8.70688 12.0181 8.70688 12.1799C8.70688 12.3417 8.84679 12.4729 9.01938 12.4729H9.56625C9.73884 12.4729 9.87875 12.3417 9.87875 12.1799C9.87875 12.0181 9.73884 11.887 9.56625 11.887Z" fill="#555555" stroke="black" stroke-width="0.0390625"/>
<path d="M12.3006 11.887H11.7538C11.5812 11.887 11.4413 12.0181 11.4413 12.1799C11.4413 12.3417 11.5812 12.4729 11.7538 12.4729H12.3006C12.4732 12.4729 12.6131 12.3417 12.6131 12.1799C12.6131 12.0181 12.4732 11.887 12.3006 11.887Z" fill="#555555" stroke="black" stroke-width="0.0390625"/>
<path d="M15.035 11.887H14.4881C14.3155 11.887 14.1756 12.0181 14.1756 12.1799C14.1756 12.3417 14.3155 12.4729 14.4881 12.4729H15.035C15.2076 12.4729 15.3475 12.3417 15.3475 12.1799C15.3475 12.0181 15.2076 11.887 15.035 11.887Z" fill="#555555" stroke="black" stroke-width="0.0390625"/>
<path d="M17.7694 11.887H17.2225C17.0499 11.887 16.91 12.0181 16.91 12.1799C16.91 12.3417 17.0499 12.4729 17.2225 12.4729H17.7694C17.942 12.4729 18.0819 12.3417 18.0819 12.1799C18.0819 12.0181 17.942 11.887 17.7694 11.887Z" fill="#555555" stroke="black" stroke-width="0.0390625"/>
<path d="M4.0975 15.4026H3.55063C3.37804 15.4026 3.23813 15.5338 3.23813 15.6956C3.23813 15.8574 3.37804 15.9885 3.55063 15.9885H4.0975C4.27009 15.9885 4.41 15.8574 4.41 15.6956C4.41 15.5338 4.27009 15.4026 4.0975 15.4026Z" fill="#555555" stroke="black" stroke-width="0.0390625"/>
<path d="M6.83188 15.4026H6.285C6.11241 15.4026 5.9725 15.5338 5.9725 15.6956C5.9725 15.8574 6.11241 15.9885 6.285 15.9885H6.83188C7.00447 15.9885 7.14438 15.8574 7.14438 15.6956C7.14438 15.5338 7.00447 15.4026 6.83188 15.4026Z" fill="#555555" stroke="black" stroke-width="0.0390625"/>
<path d="M9.56625 15.4026H9.01938C8.84679 15.4026 8.70688 15.5338 8.70688 15.6956C8.70688 15.8574 8.84679 15.9885 9.01938 15.9885H9.56625C9.73884 15.9885 9.87875 15.8574 9.87875 15.6956C9.87875 15.5338 9.73884 15.4026 9.56625 15.4026Z" fill="#555555" stroke="black" stroke-width="0.0390625"/>
<path d="M12.3006 15.4026H11.7538C11.5812 15.4026 11.4413 15.5338 11.4413 15.6956C11.4413 15.8574 11.5812 15.9885 11.7538 15.9885H12.3006C12.4732 15.9885 12.6131 15.8574 12.6131 15.6956C12.6131 15.5338 12.4732 15.4026 12.3006 15.4026Z" fill="#555555" stroke="black" stroke-width="0.0390625"/>
<path d="M15.035 15.4026H14.4881C14.3155 15.4026 14.1756 15.5338 14.1756 15.6956C14.1756 15.8574 14.3155 15.9885 14.4881 15.9885H15.035C15.2076 15.9885 15.3475 15.8574 15.3475 15.6956C15.3475 15.5338 15.2076 15.4026 15.035 15.4026Z" fill="#555555" stroke="black" stroke-width="0.0390625"/>
</g>
</g>
<defs>
<clipPath id="clip0_2_405">
<rect width="20" height="20" fill="white" transform="translate(0.660004 0.0900879)"/>
</clipPath>
<clipPath id="clip1_2_405">
<rect width="20" height="20" fill="white" transform="translate(0.660004 0.0900879)"/>
</clipPath>
</defs>
</svg>
