<svg width="36" height="27" viewBox="0 0 36 27" fill="none" xmlns="http://www.w3.org/2000/svg">
<g clip-path="url(#clip0_2_364)">
<g clip-path="url(#clip1_2_364)">
<path d="M10.83 0.870117C5.31602 0.870117 0.830017 5.35612 0.830017 10.8701C0.830017 16.3841 5.31602 20.8701 10.83 20.8701C16.344 20.8701 20.83 16.3841 20.83 10.8701C20.83 5.35612 16.344 0.870117 10.83 0.870117ZM10.83 20.2035C5.68368 20.2035 1.49668 16.0165 1.49668 10.8701C1.49668 5.72378 5.68368 1.53678 10.83 1.53678C15.9764 1.53678 20.1634 5.72378 20.1634 10.8701C20.1634 16.0165 15.9764 20.2035 10.83 20.2035Z" fill="#555555"/>
<path d="M11.1633 9.54375V6.16309C11.1633 5.97875 11.014 5.82975 10.83 5.82975C10.646 5.82975 10.4967 5.97875 10.4967 6.16309V9.54375C10.0303 9.66509 9.66535 10.0301 9.54401 10.4964H7.16335C6.97935 10.4964 6.83001 10.6454 6.83001 10.8298C6.83001 11.0141 6.97935 11.1631 7.16335 11.1631H9.54401C9.69301 11.7364 10.2107 12.1631 10.83 12.1631C11.5653 12.1631 12.1633 11.5651 12.1633 10.8298C12.1633 10.2101 11.7367 9.69275 11.1633 9.54375ZM10.83 11.4964C10.4623 11.4964 10.1633 11.1974 10.1633 10.8298C10.1633 10.4621 10.4623 10.1631 10.83 10.1631C11.1977 10.1631 11.4967 10.4621 11.4967 10.8298C11.4967 11.1974 11.1977 11.4964 10.83 11.4964ZM10.83 4.16309C11.014 4.16309 11.1633 4.01409 11.1633 3.82975V3.49642C11.1633 3.31209 11.014 3.16309 10.83 3.16309C10.646 3.16309 10.4967 3.31209 10.4967 3.49642V3.82975C10.4967 4.01409 10.646 4.16309 10.83 4.16309ZM10.83 17.4964C10.646 17.4964 10.4967 17.6454 10.4967 17.8298V18.1631C10.4967 18.3474 10.646 18.4964 10.83 18.4964C11.014 18.4964 11.1633 18.3474 11.1633 18.1631V17.8298C11.1633 17.6454 11.014 17.4964 10.83 17.4964ZM18.1633 10.4964H17.83C17.646 10.4964 17.4967 10.6454 17.4967 10.8298C17.4967 11.0141 17.646 11.1631 17.83 11.1631H18.1633C18.3473 11.1631 18.4967 11.0141 18.4967 10.8298C18.4967 10.6454 18.3473 10.4964 18.1633 10.4964ZM3.83001 10.4964H3.49668C3.31268 10.4964 3.16335 10.6454 3.16335 10.8298C3.16335 11.0141 3.31268 11.1631 3.49668 11.1631H3.83001C4.01401 11.1631 4.16335 11.0141 4.16335 10.8298C4.16335 10.6454 4.01401 10.4964 3.83001 10.4964ZM15.7797 5.40842L15.544 5.64409C15.4137 5.77442 15.4137 5.98509 15.544 6.11542C15.609 6.18042 15.6943 6.21309 15.7797 6.21309C15.865 6.21309 15.9503 6.18042 16.0153 6.11542L16.251 5.87975C16.3813 5.74942 16.3813 5.53875 16.251 5.40842C16.1207 5.27809 15.91 5.27842 15.7797 5.40842ZM5.64468 15.5438L5.40901 15.7794C5.27868 15.9098 5.27868 16.1204 5.40901 16.2508C5.47401 16.3158 5.55935 16.3484 5.64468 16.3484C5.73001 16.3484 5.81535 16.3158 5.88035 16.2508L6.11601 16.0151C6.24635 15.8848 6.24635 15.6741 6.11601 15.5438C5.98568 15.4134 5.77468 15.4138 5.64468 15.5438ZM16.0153 15.5438C15.885 15.4134 15.6743 15.4134 15.544 15.5438C15.4137 15.6741 15.4137 15.8848 15.544 16.0151L15.7797 16.2508C15.8447 16.3158 15.93 16.3484 16.0153 16.3484C16.1007 16.3484 16.186 16.3158 16.251 16.2508C16.3813 16.1204 16.3813 15.9098 16.251 15.7794L16.0153 15.5438ZM5.88035 5.40842C5.75001 5.27809 5.53935 5.27809 5.40901 5.40842C5.27868 5.53875 5.27868 5.74942 5.40901 5.87975L5.64468 6.11542C5.70968 6.18042 5.79501 6.21309 5.88035 6.21309C5.96568 6.21309 6.05101 6.18042 6.11601 6.11542C6.24635 5.98509 6.24635 5.77442 6.11601 5.64409L5.88035 5.40842Z" fill="#555555"/>
</g>
</g>
<defs>
<clipPath id="clip0_2_364">
<rect width="20" height="20" fill="white" transform="translate(0.830017 0.870117)"/>
</clipPath>
<clipPath id="clip1_2_364">
<rect width="20" height="20" fill="white" transform="translate(0.830017 0.870117)"/>
</clipPath>
</defs>
</svg>
